<?xml version="1.0" encoding="UTF-8"?>
<svg id="Capa_2" data-name="Capa 2" xmlns="http://www.w3.org/2000/svg" viewBox="0 0 25 25">
  <defs>
    <style>
      .cls-1 {
        fill: #fff;
        fill-rule: evenodd;
      }
    </style>
  </defs>
  <path class="cls-1" d="M14.9,11.2s0,0,0-.1c0-.1,0-.2-.2-.3-.1-.1-.3-.2-.5-.3-.2,0-.5-.1-.7-.2,0,0,0,0,0,0,0,0,0,0,0,0,0,0,0,0,0,0,0,0,0,0,0,0,0,0,0,0,0,0,0,0,0,0,0,0,0,0,0,0,0,0,0,0,0,0,0,0,0,0,0,0,0,0h0s0,0,0,0h0s0,0,0,0h0s0,0,0,0c0,0,0,0,0,0,0,0,0,0,0,0,0,0,0,0,0,0,0,0,0,0-.1,0,0,0,0,0,0,0,0,0-.2,0-.2,0,0,0,.1,0,.2,0,0,0-.1,0-.2,0,0,0,0,0,0,0,0,0-.2,0-.2,0,0,0,0,0,0,0,0,0,0,0-.1,0,0,0,0,0,0,0,0,0,0,0,0,0,0,0,0,0,0,0,0,0,0,0,0,0,0,0,0,0,0,0,0,0,0,0,0,0h0s0,0,0,0h0s0,0,0,0c0,0,0,0,0,0,0,0,0,0,0,0h0s0,0,0,0h0s0,0,0,0h0s0,0,0,0c0,0,0,0,0,0,0,0,0,0,0,0,0,0-.2,0-.3,0-.3,0-.6,.2-.9,.3,0,0,0,0,0,0,0,0-.1,.2-.2,.3,0,.1,0,.2,0,.4,0,.4,.2,.7,.4,1.1,0,0,0,0,0,0,0,0,.2,0,.3-.1,.2,0,.3-.1,.5-.2,0,0,.2,0,.3,0,.1,0,.2,0,.4,0,0,0,0,0,0,0h0s0,0,0,0h0s0,0,0,0c0,0,0,0,0,0h0s0,0,0,0c0,0,0,0,0,0,0,0,0,0,0,0,0,0,0,0,0,0,0,0,0,0,0,0,0,0,0,0,0,0,0,0,0,0,0,0,0,0,.1,0,.2,0,0,0,0,0,0,0,0,0,.1,0,.2,0,0,0,0,0,0,0,0,0,0,0,0,0h0s0,0,0,0c0,0,0,0,0,0h0s0,0,0,0c0,0,0,0,0,0,0,0,0,0,0,0h0s0,0,0,0c0,0,0,0,0,0,0,0,0,0,0,0,.1,0,.2,0,.3,0,.2,0,.3,0,.5,.1,0,0,.2,0,.3,.1,0,0,.2,0,.3,.1,0,0,0,0,0,0,0,0,0-.1,0-.2,0-.2,.1-.4,.2-.5,0,0,0-.2,0-.3,0,0,0,0,0,0h0c0,0,0-.1,0-.2,0,0,0,0,0,0h0c0,0,0,0,0,0Z"/>
  <path class="cls-1" d="M24.9,13.3c-.8-.9-1.9-1.4-3.1-1.4,0,0,0,0,0,0,0,0,0,0,0,0,.4-.8,.4-1.7,0-2.5-.2-.5-.6-.8-1.1-1.1-.4-.3-.9-.5-1.5-.5-.9,0-1.8,.3-2.5,.9,0,0,0,0,0,0,0,0,0,0,0,0-.3-1.4-1.1-2.6-2.1-3.4-1.1-.9-2.4-1.3-3.8-1.3s-3.2,.6-4.3,1.8c-1.1,1.1-1.8,2.7-1.8,4.3s0,.8,.1,1.2c0,.3,.2,.6,.3,1,0,0,0,0,0,.1-.1,0-.3,0-.5-.1,0,0-.1,0-.2,0-.3,0-.5,0-.8,0-1.2,0-2.4,.5-3.3,1.4-.9,.9-1.4,2-1.4,3.3s.5,2.4,1.4,3.3c.9,.9,2.1,1.4,3.3,1.4H21.5c1.2,0,2.4-.5,3.3-1.4,.9-.9,1.4-2,1.4-3.3s-.5-2.3-1.3-3.2Zm-9.4,5.6c-.1,.2-.3,.3-.5,.4,0,0,0,0,0,0-.5,.2-.9,.3-1.4,.4-.4,0-.8,0-1.2,0-.8,0-1.6-.1-2.3-.4,0,0,0,0,0,0-.3-.2-.5-.5-.7-.7-.3-.4-.5-.8-.7-1.3,0-.2,0-.3-.1-.5,0,0,0,0,0,0h0s0,0,0,0c0,0,0,0,0,0,0,0,0,0,0,0,0,0,0,0,0,0,0,0,0,0,0,0,0,0,0,0,0,0h0s0,0,0,0h0s0,0,0,0h0c0-.2,0-.3,0-.5,0-.9,.4-1.8,1-2.5,0,0,0,0,0,0-.2-.4-.4-.8-.5-1.3,0-.3-.1-.6-.1-.9,0-.6,.3-1,.8-1.4,.3-.2,.7-.4,1-.5,.5-.1,1-.2,1.5-.2,.7,0,1.5,0,2.2,.2,.4,.1,.8,.2,1.1,.5,.4,.3,.6,.6,.7,1.1,0,.2,0,.5,0,.7,0,0,0,0,0,0,0,0,0,0,0,0h0s0,0,0,0h0s0,0,0,0h0s0,0,0,0c0,0,0,.1,0,.2,0,0,0,0,0,0,0,.1,0,.3-.1,.4,0,.2-.1,.3-.2,.5,0,.1-.1,.3-.2,.4,0,0,0,0,0,0,.5,.6,.9,1.3,1,2,.2,1.3,0,2.5-1,3.5Z"/>
</svg>