<?xml version="1.0" encoding="UTF-8"?>
<svg id="Capa_1" data-name="Capa 1" xmlns="http://www.w3.org/2000/svg" xmlns:xlink="http://www.w3.org/1999/xlink" viewBox="0 0 130.21 124.01">
  <defs>
    <style>
      .cls-1 {
        fill: url(#Degradado_sin_nombre_6);
      }

      .cls-2 {
        fill: url(#Degradado_sin_nombre_5);
      }
    </style>
    <linearGradient id="Degradado_sin_nombre_6" data-name="Degradado sin nombre 6" x1="-23.01" y1="148.85" x2="65.7" y2="64.26" gradientUnits="userSpaceOnUse">
      <stop offset=".29" stop-color="#632574"/>
      <stop offset="1" stop-color="#8e4392"/>
    </linearGradient>
    <linearGradient id="Degradado_sin_nombre_5" data-name="Degradado sin nombre 5" x1="94.08" y1="44.43" x2="102.67" y2="17.95" gradientUnits="userSpaceOnUse">
      <stop offset=".34" stop-color="#7c8e28"/>
      <stop offset="1" stop-color="#c3d45b"/>
    </linearGradient>
  </defs>
  <path class="cls-1" d="M19.19,124.01c-10.58,0-19.19-8.61-19.19-19.19s8.61-19.19,19.19-19.19,19.19,8.61,19.19,19.19-8.61,19.19-19.19,19.19Zm0-33.36c-7.81,0-14.17,6.36-14.17,14.17s6.36,14.17,14.17,14.17,14.17-6.36,14.17-14.17-6.36-14.17-14.17-14.17Zm15.02-5.3c-7.78,0-14.12-6.33-14.12-14.12s6.33-14.12,14.12-14.12,14.12,6.33,14.12,14.12-6.33,14.12-14.12,14.12Zm0-23.22c-5.02,0-9.1,4.08-9.1,9.1s4.08,9.1,9.1,9.1,9.1-4.08,9.1-9.1-4.08-9.1-9.1-9.1Zm22.86,50.3c-8.96,0-16.25-7.29-16.25-16.25s7.29-16.25,16.25-16.25,16.25,7.29,16.25,16.25-7.29,16.25-16.25,16.25Zm0-27.49c-6.2,0-11.24,5.04-11.24,11.24s5.04,11.24,11.24,11.24,11.24-5.04,11.24-11.24-5.04-11.24-11.24-11.24Zm5.54-7.55c-6.28,0-11.4-5.11-11.4-11.4s5.11-11.4,11.4-11.4,11.4,5.11,11.4,11.4-5.11,11.4-11.4,11.4Zm0-17.78c-3.52,0-6.38,2.86-6.38,6.38s2.86,6.38,6.38,6.38,6.38-2.86,6.38-6.38-2.86-6.38-6.38-6.38Zm-15.85-3.13c-7.78,0-14.12-6.33-14.12-14.12s6.33-14.12,14.12-14.12,14.12,6.33,14.12,14.12-6.33,14.12-14.12,14.12Zm0-23.22c-5.02,0-9.1,4.08-9.1,9.1s4.08,9.1,9.1,9.1,9.1-4.08,9.1-9.1-4.08-9.1-9.1-9.1Zm41.82,62.83c-8.37,0-15.18-6.81-15.18-15.18s6.81-15.18,15.18-15.18,15.18,6.81,15.18,15.18-6.81,15.18-15.18,15.18Zm0-25.35c-5.61,0-10.17,4.56-10.17,10.17s4.56,10.17,10.17,10.17,10.17-4.56,10.17-10.17-4.56-10.17-10.17-10.17Zm-5.3-10.72c-8.73,0-15.83-7.1-15.83-15.83s7.1-15.83,15.83-15.83,15.83,7.1,15.83,15.83-7.1,15.83-15.83,15.83Zm0-26.65c-5.96,0-10.82,4.85-10.82,10.82s4.85,10.82,10.82,10.82,10.82-4.85,10.82-10.82-4.85-10.82-10.82-10.82Z"/>
  <path class="cls-2" d="M89.6,26.84c-.1,0-.19,0-.29,0h0c-4.77-.26-7.77-6.58-8.58-8.52-2.03-4.85-2.39-11.16-.84-14.68,.92-2.08,2.34-2.96,3.38-3.33,1.52-.54,3.2-.37,4.74,.49,3.49,1.95,6.35,7.69,7.27,12.09,.39,1.89,2.03,11.42-3.73,13.59-.63,.24-1.28,.36-1.94,.36Zm-.02-5.02s.1,0,.19-.03c1-.38,1.3-4.36,.59-7.89-.81-3.91-3.21-7.83-4.81-8.73-.18-.1-.43-.21-.59-.14-.21,.08-.39,.43-.48,.63-.87,1.99-.73,6.88,.88,10.72,1.15,2.74,3.2,5.39,4.22,5.44h0Zm14.83,11.88c-.3,0-.59,0-.88-.02-3.96-.21-5.78-1.95-6.61-3.36-3.22-5.5,3.86-12.01,8.55-14.99,5.95-3.78,14.74-5.86,19.62-4.64,2.53,.63,3.78,2.03,4.38,3.08,.87,1.54,.98,3.41,.32,5.28-1.56,4.4-7.86,9.74-14.65,12.4-.62,.24-5.87,2.25-10.72,2.25Zm17.51-18.34c-3.48,0-9.22,1.32-13.76,4.2-3.85,2.44-7.79,6.72-6.91,8.22,.29,.49,1.22,.82,2.55,.89h0c3.27,.17,7.64-1.16,9.5-1.88,5.77-2.27,10.83-6.78,11.76-9.41,.12-.34,.23-.81,.04-1.14-.21-.37-.78-.58-1.22-.69-.51-.13-1.18-.19-1.95-.19Z"/>
</svg>