<?xml version="1.0" encoding="UTF-8"?>
<svg id="Capa_1" data-name="Capa 1" xmlns="http://www.w3.org/2000/svg" xmlns:xlink="http://www.w3.org/1999/xlink" viewBox="0 0 128.72 93.62">
  <defs>
    <style>
      .cls-1 {
        fill: url(#Degradado_sin_nombre_3);
      }

      .cls-2 {
        fill: url(#Degradado_sin_nombre_2);
      }
    </style>
    <linearGradient id="Degradado_sin_nombre_3" data-name="Degradado sin nombre 3" x1="81.73" y1="-4.34" x2="81.53" y2="41.62" gradientUnits="userSpaceOnUse">
      <stop offset="0" stop-color="#e62053"/>
      <stop offset=".21" stop-color="#e01f4e"/>
      <stop offset=".48" stop-color="#d11e41"/>
      <stop offset=".77" stop-color="#b81d2d"/>
      <stop offset="1" stop-color="#9f1c18"/>
    </linearGradient>
    <linearGradient id="Degradado_sin_nombre_2" data-name="Degradado sin nombre 2" x1="-41.33" y1="68.42" x2="214.86" y2="66.65" gradientUnits="userSpaceOnUse">
      <stop offset=".02" stop-color="#0b6085"/>
      <stop offset=".29" stop-color="#3a9eca"/>
      <stop offset=".43" stop-color="#52bcec"/>
      <stop offset=".53" stop-color="#4ab3e2"/>
      <stop offset=".69" stop-color="#379bc8"/>
      <stop offset=".89" stop-color="#18759e"/>
      <stop offset="1" stop-color="#055e84"/>
    </linearGradient>
  </defs>
  <path class="cls-1" d="M81.65,47.1c-.99,0-1.97-.31-2.84-.89l-.21-.15c-4.83-3.67-9.16-7.01-13.29-10.94-2.85-2.71-5.77-5.77-7.91-9.73-3.52-6.59-2.84-14,1.78-19.35C63.74,.8,69.6-1.08,76.15,.6c2.03,.53,3.9,1.46,5.57,2.79,5.82-4.57,14.15-4.5,19.95,.27,4.86,3.99,7.03,9.34,6.29,15.47-.42,3.7-2.1,6.6-3.52,8.7-2.27,3.33-5.04,6.04-7.45,8.25-3.93,3.59-8.16,6.85-12.15,9.89l-.13,.1c-1.01,.7-2.01,1.04-3.06,1.04ZM71.62,6.74c-2.78,0-5.15,1.22-7.32,3.72-2.75,3.18-3.11,7.69-.94,11.75,1.68,3.12,4.17,5.71,6.61,8.03,3.6,3.41,7.44,6.44,11.7,9.67,3.6-2.75,7.35-5.69,10.79-8.82,2.12-1.94,4.54-4.31,6.42-7.06,.98-1.45,2.15-3.43,2.41-5.69,.46-3.86-.8-6.96-3.88-9.48-3.43-2.81-8.37-2.8-11.75,.03-.54,.44-1.03,.95-1.49,1.45l-2.59,2.76-2.45-2.89c-1.35-1.59-2.91-2.63-4.65-3.08-.99-.26-1.94-.38-2.85-.38Z"/>
  <path class="cls-2" d="M66.65,93.26c-4.81,0-9.38-1.54-13.65-3.26-3.91-1.57-7.75-3.29-11.4-5.12-2.43-1.22-3.78-1.36-5.33-.59-1.22,.6-2.69,.13-3.34-1.06l-15.07-27.92c-.6-1.11-.28-2.5,.74-3.24,9.27-6.72,21.89-13.63,37.31-7.42,1.99,.8,4.24,1.86,5.77,3.6,2.84,3.24,6.6,4.35,11.75,5.1,1.77,.26,3.61,.45,5.38,.64,1.79,.19,3.65,.38,5.49,.65,2.08,.3,5.94,.86,7.01,4.81,.88,3.24-.84,5.52-2.41,6.93,8.65-5.71,17.57-11.08,25.28-15.67h0c3.12-1.86,7.01-1.82,10.15,.1,2.95,1.81,4.59,4.87,4.36,8.17-.14,2.11-1.13,4.35-2.51,5.7-17.58,17.15-36.39,26.46-57.49,28.47-.69,.07-1.37,.1-2.05,.1Zm-28.51-14.48c2.12,0,4.03,.76,5.71,1.6,3.53,1.76,7.23,3.43,11.02,4.95,4.94,1.98,9.11,3.22,13.35,2.82,19.91-1.89,37.72-10.74,54.44-27.06,.5-.48,.95-1.58,1-2.43,.14-2.01-1.33-3.14-1.97-3.53-1.2-.74-3.13-1.15-4.93-.07h0c-7.8,4.65-16.85,10.09-25.57,15.86-10.7,7.09-21.57,7.76-32.32,2-.52-.28-.95-.6-1.33-.89-.13-.1-.26-.2-.4-.29-.92-.64-1.31-1.82-.94-2.88,.36-1.06,1.36-1.76,2.5-1.71,1.32,.06,2.52,.27,3.67,.47,.69,.12,1.33,.23,1.97,.31,8.31,.97,14.7-.44,20.1-4.43,2.12-1.57,2.17-2.12,2-2.73-.16-.6-.75-.84-2.87-1.14-1.74-.25-3.55-.44-5.3-.62-1.82-.19-3.71-.39-5.58-.66-4.92-.72-10.53-1.89-14.81-6.76-.83-.95-2.42-1.67-3.86-2.25-9.87-3.98-19.13-2.33-30.66,5.55l12.99,24.07c.61-.13,1.21-.18,1.78-.18Zm77.33-25.89h0ZM17.63,93.62c-.35,0-.7-.05-1.05-.16-.93-.28-1.69-.9-2.15-1.76L.43,65.65c-.95-1.76-.28-3.96,1.48-4.91l9.27-4.98c1.76-.94,3.96-.28,4.91,1.48,0,0,0,0,0,0l14,26.05c.95,1.76,.28,3.96-1.48,4.91l-9.27,4.98c-.54,.29-1.12,.43-1.71,.43Zm-12.09-29.1l12.66,23.56,6.78-3.64-12.66-23.56-6.78,3.64Zm6.11-4.89h0s0,0,0,0Z"/>
</svg>