<?xml version="1.0" encoding="UTF-8"?>
<svg id="Layer_1" data-name="Layer 1" xmlns="http://www.w3.org/2000/svg" viewBox="0 0 57.93 63.61">
  <defs>
    <style>
      .cls-1 {
        fill: #fff;
      }
    </style>
  </defs>
  <path class="cls-1" d="M52.95,5.67h-6.43v2.58c0,2.51-2.04,4.55-4.55,4.55s-4.55-2.04-4.55-4.55v-2.58H20.51v2.58c0,2.51-2.04,4.55-4.55,4.55s-4.55-2.04-4.55-4.55v-2.58H4.98C2.23,5.67,0,7.91,0,10.66V58.62c0,2.75,2.23,4.98,4.98,4.98H52.95c2.75,0,4.98-2.23,4.98-4.98V10.66c0-2.75-2.23-4.98-4.98-4.98Zm.76,51.56c0,1.39-1.13,2.51-2.51,2.51H6.34c-1.39,0-2.52-1.13-2.52-2.51V20.47H53.71V57.24Z"/>
  <rect class="cls-1" x="8.39" y="25.32" width="11.06" height="7.81" rx=".6" ry=".6"/>
  <rect class="cls-1" x="23.24" y="25.32" width="11.06" height="7.81" rx=".6" ry=".6"/>
  <rect class="cls-1" x="38.08" y="25.32" width="11.06" height="7.81" rx=".6" ry=".6"/>
  <rect class="cls-1" x="8.39" y="36.2" width="11.06" height="7.81" rx=".6" ry=".6"/>
  <rect class="cls-1" x="23.24" y="36.2" width="11.06" height="7.81" rx=".6" ry=".6"/>
  <rect class="cls-1" x="38.08" y="36.2" width="11.06" height="7.81" rx=".6" ry=".6"/>
  <rect class="cls-1" x="8.39" y="47.09" width="11.06" height="7.81" rx=".6" ry=".6"/>
  <rect class="cls-1" x="23.24" y="47.09" width="11.06" height="7.81" rx=".6" ry=".6"/>
  <rect class="cls-1" x="38.08" y="47.09" width="11.06" height="7.81" rx=".6" ry=".6"/>
  <path class="cls-1" d="M15.97,11.1c1.57,0,2.84-1.27,2.84-2.85V2.85c0-.78-.32-1.5-.83-2.01-.51-.51-1.22-.83-2.01-.83-1.57,0-2.85,1.27-2.85,2.85v5.41c0,1.57,1.27,2.85,2.85,2.85Z"/>
  <path class="cls-1" d="M41.97,11.1c1.57,0,2.85-1.27,2.85-2.85V2.85c0-.78-.32-1.5-.83-2.01-.52-.51-1.23-.83-2.01-.83-1.57,0-2.84,1.27-2.84,2.85v5.41c0,1.57,1.27,2.85,2.84,2.85Z"/>
</svg>