<?xml version="1.0" encoding="UTF-8"?>
<svg id="Capa_1" data-name="Capa 1"
  xmlns="http://www.w3.org/2000/svg"
  xmlns:xlink="http://www.w3.org/1999/xlink" viewBox="0 0 114.28 124.01">
  <defs>
    <style>
      .cls-1 {
        fill: url(#Degradado_sin_nombre_158);
      }

      .cls-2 {
        fill: url(#Degradado_sin_nombre_139);
      }
    </style>
    <linearGradient id="Degradado_sin_nombre_139" data-name="Degradado sin nombre 139" x1="29.29" y1="110.19" x2="79.65" y2="81.61" gradientUnits="userSpaceOnUse">
      <stop offset="0" stop-color="#8e8733"/>
      <stop offset="1" stop-color="#ddd142"/>
    </linearGradient>
    <linearGradient id="Degradado_sin_nombre_158" data-name="Degradado sin nombre 158" x1="65.51" y1="64.5" x2="61.42" y2="32.74" gradientUnits="userSpaceOnUse">
      <stop offset="0" stop-color="#94a923"/>
      <stop offset=".34" stop-color="#97ab24"/>
      <stop offset=".59" stop-color="#a0b42a"/>
      <stop offset=".82" stop-color="#b0c234"/>
      <stop offset="1" stop-color="#c4d441"/>
    </linearGradient>
  </defs>
  <path class="cls-2" d="M18.24,117.01c-3.83,0-7.29-1.04-10.26-3.1-10.47-7.23-10.66-24.48-.44-39.28,10.22-14.8,26.42-20.72,36.89-13.5,10.47,7.23,10.66,24.48,.44,39.28-7.07,10.24-17.28,16.6-26.63,16.6Zm15.84-53.08c-7.11,0-15.54,5.2-21.67,14.07-8.33,12.06-8.8,25.69-1.07,31.03,1.97,1.36,4.29,2.05,6.89,2.05,7.32,0,15.86-5.51,21.75-14.04,8.33-12.06,8.8-25.69,1.07-31.03-2.04-1.41-4.42-2.08-6.98-2.08Zm58.82,60.07c-11.98,0-24.4-9.71-31.64-24.75-9.26-19.22-6.02-39.33,7.37-45.78,6.67-3.21,14.58-2.5,22.27,2.02,7.31,4.29,13.74,11.67,18.12,20.76,4.2,8.73,5.97,18.08,4.98,26.33-1.11,9.24-5.5,16.15-12.35,19.45-2.71,1.31-5.66,1.97-8.75,1.97Zm-15.5-66.57c-2.19,0-4.28,.46-6.19,1.38-10.39,5.01-12.42,21.64-4.6,37.86,6.16,12.8,16.73,21.39,26.3,21.39,2.2,0,4.27-.46,6.18-1.38,4.96-2.39,8.17-7.65,9.03-14.82,.86-7.14-.71-15.33-4.43-23.05-3.88-8.05-9.48-14.52-15.78-18.22-3.58-2.1-7.16-3.17-10.5-3.17Z"/>
  <path class="cls-1" d="M42.05,55.5c-7,0-12.2-9.35-13.17-11.22-3.44-6.65-4.55-15.8-2.52-20.82,.91-2.26,2.47-3.87,4.5-4.67,1.43-.56,3.71-.96,6.48,.32,4.71,2.16,9.82,9.25,11.88,16.51,.46,1.62,4.2,15.85-4.18,19.29-.96,.39-1.97,.59-2.99,.59Zm-8.38-31.31c-.23,0-.44,.04-.63,.12-.31,.12-.77,.4-1.17,1.37-1.23,3.05-.6,10.31,2.28,15.87,1.68,3.23,5.35,8.02,7.9,8.02,.25,0,.49-.05,.74-.15,2.38-.98,1.94-7.83,.72-12.19-1.69-5.94-5.91-11.48-8.64-12.73-.44-.2-.84-.3-1.21-.3Zm29.87,26.31c-1.53,0-2.96-.36-4.26-1.07-10.45-5.72-.57-25.72-.14-26.57C64.75,11.65,75.34,2.55,81.93,.55c3.68-1.12,6.28-.32,7.81,.55,1.56,.89,3.58,2.71,4.32,6.35,1.42,7.04-2.91,19.62-9.85,28.64-.68,.88-6.86,8.74-13.95,12.49h0c-2.42,1.28-4.66,1.92-6.71,1.92ZM85.42,5.93c-.52,0-1.1,.1-1.75,.3-5.33,1.62-14.54,9.94-19.23,19.29-3.21,6.4-5.88,16.75-2.31,18.71,1.49,.82,3.74-.03,5.36-.89,4.87-2.58,10-8.24,12.03-10.87,6.42-8.34,9.71-19.06,8.74-23.85-.24-1.17-.72-1.96-1.43-2.37-.39-.22-.86-.33-1.4-.33Z"/>
</svg>