<?xml version="1.0" encoding="UTF-8"?>
<svg id="Layer_1" data-name="Layer 1" xmlns="http://www.w3.org/2000/svg" viewBox="0 0 70.87 63.61">
  <defs>
    <style>
      .cls-1 {
        fill: #fff;
      }
    </style>
  </defs>
  <path class="cls-1" d="M35.33,8.85c1.44-1.54,2.72-3.11,4.24-4.39,6.8-5.89,16.69-5.93,23.57-.09,5.81,4.95,8.45,11.3,7.54,19.11-.45,4.18-2.27,7.81-4.49,11.22-3.09,4.69-6.92,8.66-10.92,12.46-6.1,5.76-12.65,11-19.2,16.17-.41,.3-.66,.43-1.15,.09-7.17-5.63-14.3-11.3-20.85-17.74-4.37-4.31-8.49-8.83-11.37-14.37C-1.47,23.22-.81,14.05,4.67,7.48,9.99,1.13,16.66-1.39,24.7,.74c4.12,1.11,7.38,3.71,9.97,7.17,.25,.3,.45,.64,.66,.9v.04Z"/>
</svg>