<?xml version="1.0" encoding="UTF-8"?>
<svg id="Capa_2" data-name="Capa 2" xmlns="http://www.w3.org/2000/svg" viewBox="0 0 25 25">
  <defs>
    <style>
      .cls-1 {
        fill: #fff;
      }
    </style>
  </defs>
  <path class="cls-1" d="M22,14.6c-.3-1.8-1.2-3.4-2.4-4.8,0,0,0-.1,0-.2,.2-.3,.3-.6,.5-1,.2-.4,.3-.8,.5-1.1,.1-.3,.2-.6,.3-.9,0,0,0,0,0-.1,0-.1,0-.3,0-.4,0,0,0,0,0-.1h0s0,0,0-.1h0s0,0,0-.1h0s0,0,0-.1c0,0,0,0,0,0,0-.6,0-1.1,0-1.7-.2-1.1-.8-1.9-1.7-2.5-.8-.6-1.7-.9-2.7-1.2-1.7-.4-3.5-.6-5.2-.5-1.2,0-2.3,.2-3.5,.5-.9,.2-1.7,.6-2.5,1.1-1.1,.8-1.7,1.9-1.8,3.3,0,.7,.1,1.4,.3,2.1,.3,1.1,.8,2,1.3,3,0,0,0,0,0,.1-1.5,1.7-2.3,3.6-2.4,5.9,0,.4,0,.8,0,1.2h0c0,0,0,.2,0,.2h0c0,0,0,.1,0,.2h0c0,0,0,.1,0,.2,0,0,0,0,0,0,0,0,0,0,0,.1,0,0,0,0,0,0,0,0,0,0,0,.1h0s0,0,0,.1c0,0,0,0,0,0,0,.4,.2,.8,.3,1.2,.3,1.1,.8,2.1,1.6,3.1,.5,.6,1,1.2,1.6,1.7,0,0,.1,0,.2,.1,1.8,.7,3.6,1,5.5,1,1,0,2,0,2.9-.2,1.2-.2,2.3-.4,3.4-.9,0,0,0,0,.1,0,.4-.4,.8-.7,1.1-1.1,2.1-2.4,2.9-5.2,2.3-8.3Zm-3.9-9.1c0,.2-.1,.5-.2,.7-.2,.4-.3,.9-.5,1.3,0,.2-.1,.3-.2,.5,0,0,0,0-.1,0-.2-.1-.4-.2-.7-.3-.2,0-.4-.2-.6-.2-.4-.1-.7-.2-1.1-.3-.3,0-.5-.1-.8-.2,0,0,0,0,0,0,0,0,0,0-.1,0h0s0,0,0,0c0,0,0,0-.1,0,0,0,0,0,0,0,0,0,0,0-.1,0,0,0,0,0,0,0,0,0-.1,0-.2,0h0s0,0,0,0c0,0-.1,0-.2,0,0,0,0,0,0,0-.2,0-.3,0-.5,0,0,0-.1,0-.2,0-.2,0-.3,0-.5,0,0,0,0,0,0,0,0,0-.1,0-.2,0,0,0,0,0,0,0,0,0-.1,0-.2,0,0,0,0,0,0,0,0,0,0,0-.1,0h0s0,0,0,0c0,0,0,0-.1,0h0s0,0,0,0c0,0,0,0-.1,0h0s0,0-.1,0c-.3,0-.6,.1-.9,.2-.2,0-.4,.1-.6,.2-.4,.2-.8,.3-1.2,.5-.2,0-.4,.2-.6,.3,0,0,0,0,0,0-.4-.8-.8-1.6-.9-2.5,0-.3,0-.6,0-.8,0-.3,.1-.5,.4-.7,0,0,0,0,.1-.1,.6-.4,1.3-.6,2-.8,.2,0,.5,0,.7-.1,0,0,0,0,.1,0h.1s0,0,.1,0h0s0,0,.1,0h0s0,0,.1,0c0,0,0,0,0,0,0,0,0,0,.1,0,0,0,0,0,0,0,0,0,0,0,.1,0h0c0,0,.1,0,.2,0h0c0,0,.1,0,.2,0,0,0,0,0,0,0,0,0,.1,0,.2,0,0,0,0,0,0,0,0,0,.1,0,.2,0,0,0,0,0,0,0,0,0,.2,0,.3,0,0,0,0,0,0,0,.2,0,.4,0,.6,0,0,0,0,0,0,0,.2,0,.3,0,.5,0-.2,0-.3,0-.5,0,.2,0,.4,0,.6,0,0,0,0,0,0,0,.1,0,.2,0,.3,0,0,0,0,0,0,0,0,0,.1,0,.2,0,0,0,0,0,0,0,0,0,.1,0,.2,0h0c0,0,.1,0,.2,0h0c0,0,.1,0,.2,0h0s0,0,.1,0c0,0,0,0,0,0,0,0,0,0,.1,0,0,0,0,0,0,0,0,0,0,0,.1,0,0,0,0,0,0,0,0,0,0,0,.1,0,0,0,0,0,.1,0,0,0,0,0,.1,0,.6,.1,1.2,.2,1.8,.4,.4,.1,.8,.3,1.1,.6,.2,.2,.3,.4,.4,.6,0,.1,0,.2,0,.3,0,0,0,0,0,0,0,0,0,0,0,.1,0,0,0,0,0,0,0,.1,0,.3,0,.4h0s0,0,0,.1Z"/>
</svg>