<?xml version="1.0" encoding="UTF-8"?>
<svg id="Capa_1" data-name="Capa 1" xmlns="http://www.w3.org/2000/svg" xmlns:xlink="http://www.w3.org/1999/xlink" viewBox="0 0 78.95 129.63">
  <defs>
    <style>
      .cls-1 {
        fill: url(#Degradado_sin_nombre_4);
      }
    </style>
    <linearGradient id="Degradado_sin_nombre_4" data-name="Degradado sin nombre 4" x1="78.33" y1="124.88" x2=".53" y2="-.98" gradientUnits="userSpaceOnUse">
      <stop offset="0" stop-color="#b18516"/>
      <stop offset=".51" stop-color="#e5c74f"/>
      <stop offset=".65" stop-color="#daba43"/>
      <stop offset=".91" stop-color="#bf9726"/>
      <stop offset="1" stop-color="#b58a1b"/>
    </linearGradient>
  </defs>
  <path class="cls-1" d="M26.7,41.46c-1.16-2.89-2.97-5.31-5.24-7.01-2.43-1.82-5.45-2.68-8.51-2.45-1.71,.14-3.44,.65-5.16,1.53-.55,.28-1.01,.67-1.36,1.14-.54-.13-1.08-.26-1.62-.38-1.1-.25-2.14-.48-3.13-.81-.33-.11-.7-.08-1.01,.08-.31,.16-.53,.43-.62,.76-.2,.67,.19,1.39,.86,1.62,1.12,.37,2.28,.63,3.4,.88,.45,.1,.89,.2,1.34,.31,.02,.88,.34,1.74,.92,2.43,.53,.62,1.05,1.33,1.55,2.01,.94,1.26,2,2.69,3.33,3.94,1.49,1.39,2.89,2.24,4.41,2.66,.77,.21,1.58,.32,2.4,.32s1.72-.12,2.57-.35c1.14-.31,2.19-.77,3.13-1.18l.55-.24c.1-.04,.2-.08,.3-.13,.92-.43,1.65-1.24,2-2.23,.34-.96,.3-2.01-.11-2.91Zm-7.23,1.76c-.77,.21-1.56,.22-2.24,.03-.7-.19-1.42-.66-2.28-1.47-.62-.58-1.19-1.26-1.74-1.96-.33-.43-.66-.86-.98-1.29-.25-.34-.5-.68-.76-1.02,.58-.2,1.15-.32,1.71-.38,.06,0,.13-.02,.19-.03,1.82-.15,3.61,.37,5.05,1.44,1.28,.96,2.35,2.29,3.14,3.89-.71,.31-1.39,.59-2.07,.78Zm16.37,15.27c-.05-.09-.1-.17-.16-.26-.32-.53-.63-1.15-.93-1.75-.79-1.61-1.7-3.43-3.39-4.88-1.3-1.12-2.91-1.78-5.06-2.06-1.45-.19-3-.08-4.74,.34-.59,.14-1.17,.31-1.75,.48-.64,.19-1.31,.38-1.92,.5-1.07,.22-2.06,.92-2.63,1.88-.12,.21-.22,.43-.3,.65-1.46-.33-2.93-.68-4.38-1.06-.61-.16-1.35,.18-1.72,.79-.24,.39-.29,.82-.14,1.19,.13,.32,.4,.56,.75,.65,1.86,.49,3.76,.93,5.62,1.35,.45,1.24,1.13,2.43,2.14,3.69,.92,1.16,2.01,2.24,3.33,3.32,1.06,.87,2.35,1.83,3.92,2.42,.98,.37,1.99,.56,3.01,.56,.85,0,1.7-.13,2.5-.39,1.23-.4,2.3-.98,3.25-1.51,.3-.17,.61-.33,.95-.51,.81-.42,1.46-1.12,1.81-1.92,.09-.2,.17-.41,.23-.64,.26-.98,.12-1.98-.38-2.83Zm-7.41,2.54c-.68,.22-1.43,.19-2.16-.08-.87-.33-1.74-.99-2.47-1.59-.53-.43-1.01-.87-1.44-1.3-.41-.41-.79-.83-1.13-1.26-.36-.45-.65-.87-.89-1.28,.31-.09,.61-.17,.9-.26,.26-.07,.52-.14,.77-.21,.25-.07,.49-.14,.74-.2,1.13-.27,2.07-.35,2.89-.24,1.45,.19,2.02,.54,2.39,.86,.9,.78,1.5,1.99,2.14,3.27,.18,.37,.38,.77,.59,1.17-.81,.45-1.57,.87-2.34,1.11Zm16.79,15.26c-1.68-2.78-3.53-4.81-5.63-6.19-2.26-1.48-4.93-2.26-7.74-2.24-1.6,.02-3.24,.25-4.87,.67-1.18,.31-2.09,1.11-2.59,2.11-1.64-.51-3.4-.92-5.37-1.08-.62-.05-1.31,.36-1.66,.98-.24,.42-.26,.88-.07,1.24,.17,.32,.49,.53,.87,.56,2.26,.19,4.2,.72,6.07,1.39,.94,3.31,2.7,6.07,5.13,8,2.11,1.68,4.76,2.58,7.45,2.56,.6,0,1.2-.06,1.79-.16,1.88-.31,3.69-1.08,5.54-2.35,.89-.61,1.47-1.61,1.58-2.73,.02-.17,.02-.34,.02-.5,.07-.79-.11-1.57-.52-2.25Zm-7.45,2.78c-1.84,.3-3.77-.2-5.23-1.36-.45-.36-.85-.78-1.23-1.23-.78-.92-1.42-2.01-1.88-3.27,.41-.07,.81-.13,1.21-.17,.43-.04,.85-.07,1.26-.08,1.78-.01,3.47,.47,4.88,1.4,1.26,.83,2.43,2.06,3.55,3.76-.88,.5-1.73,.81-2.57,.95Zm16.65,14.9c-1.76-2.49-3.65-4.31-5.77-5.57-2.28-1.35-4.93-2.08-7.66-2.11h-.04c-1.52,0-3.15,.18-4.72,.52-.86,.19-1.62,.65-2.18,1.31-.11-.05-.22-.09-.33-.14-1.92-.79-3.91-1.61-5.61-2.65-.6-.37-1.41-.18-1.84,.42-.22,.31-.31,.7-.24,1.06,.07,.34,.27,.63,.56,.81,1.87,1.15,3.95,2,6.01,2.85,.18,.07,.35,.15,.53,.22,0,.5,.1,1.01,.29,1.49,.4,.99,.95,2.28,1.6,3.58,.64,1.26,1.53,2.89,2.8,4.36,1.54,1.78,3.31,2.8,5.28,3.06,.31,.04,.62,.06,.94,.06,1.85,0,3.52-.65,4.77-1.22,.87-.39,1.7-.85,2.43-1.25,.53-.29,1.06-.58,1.62-.86h.01c.4-.18,.75-.42,1.07-.71,1.47-1.39,1.67-3.54,.48-5.22Zm-5.64,2.31c-.68,.38-1.38,.76-2.07,1.07-.8,.36-1.98,.87-2.95,.74-.44-.06-1.13-.25-2.06-1.33-.64-.74-1.17-1.6-1.61-2.39-.18-.33-.35-.64-.49-.93-.32-.63-.62-1.28-.88-1.89,.53-.07,1.05-.12,1.56-.14,.23,0,.46-.03,.68-.02,1.81,.02,3.57,.5,5.08,1.39,1.21,.72,2.34,1.74,3.44,3.1-.24,.13-.48,.26-.7,.38Zm-3.4-65.92c-.16-1.42-.46-2.84-.9-4.21-.46-1.44-1.08-3.11-2.25-4.54-.09-.1-.19-.19-.29-.28,.44-1.49,.93-3.14,1.68-4.05,.25-.3,.36-.68,.32-1.04-.04-.34-.21-.64-.49-.84-.57-.42-1.39-.3-1.87,.28-1.01,1.23-1.59,2.94-2.07,4.54-1.06-.08-2.13,.27-2.91,.98-.5,.45-1.09,.87-1.74,1.34-.45,.32-.9,.64-1.33,.99-1.61,1.26-2.84,2.75-3.65,4.43-.67,1.38-1.05,2.77-1.13,4.14-.08,1.25,.09,2.54,.48,3.85,.41,1.36,.95,2.59,1.47,3.76,.03,.08,.07,.16,.11,.23,.62,1.45,2.04,2.41,3.61,2.41,.24,0,.48-.02,.72-.07,1.47-.27,3.48-.65,5.3-1.58,2.3-1.18,3.97-3.13,4.69-5.48,.5-1.61,.41-3.29,.23-4.87Zm-5.12,3.36c-.32,1.02-1.08,1.89-2.14,2.43-.89,.46-1.95,.72-2.98,.93-.38-.86-.74-1.74-1-2.6-.22-.73-.31-1.43-.27-2.08,.04-.7,.25-1.45,.63-2.22,.47-.97,1.21-1.86,2.21-2.64,.15-.12,.31-.23,.46-.34,.24-.18,.47-.35,.72-.53,.33-.24,.69-.49,1.05-.77,.27,.56,.49,1.18,.68,1.79,.03,.09,.05,.18,.07,.27,.29,.97,.51,1.96,.62,2.96,.11,.95,.2,2.03-.03,2.79Zm14.94,13.67c-.12-1.36-.38-2.77-.77-4.18-.39-1.4-.95-3.01-2.14-4.28,.15-.49,.3-.97,.45-1.46l.03-.1c.34-1.13,.7-2.3,1.07-3.48,.12-.37,.07-.75-.13-1.06-.19-.29-.51-.48-.87-.52-.65-.06-1.31,.37-1.52,1.02-.39,1.23-.76,2.44-1.12,3.62-.08,.25-.15,.5-.23,.75-1.07-.18-2.18,.07-3.07,.81-2.03,1.66-4.13,3.49-5.58,5.9-.77,1.29-1.28,2.58-1.55,3.95-.26,1.33-.27,2.75-.02,4.23,.25,1.5,.75,3.06,1.53,4.76,.02,.04,.04,.09,.07,.14l.05,.12c.45,.96,1.28,1.71,2.28,2.07,.36,.13,.74,.21,1.12,.22,.06,0,.12,0,.18,0,.56,0,1.12-.12,1.62-.36,.34-.16,.65-.37,.94-.62,1.08-.5,2.28-1.07,3.41-1.84,2.1-1.44,3.6-3.52,4.11-5.7,.32-1.34,.26-2.71,.15-3.99Zm-5.13,2.82c-.22,.94-.98,1.93-2.03,2.65-.76,.52-1.62,.94-2.54,1.36-.35-.89-.58-1.71-.71-2.48-.15-.87-.15-1.67,0-2.4,.15-.78,.45-1.53,.92-2.3,.51-.84,1.19-1.63,1.95-2.37,.46-.46,.94-.9,1.44-1.33,.2,.48,.34,.99,.42,1.25,.14,.5,.25,1,.35,1.49,.11,.59,.2,1.18,.25,1.75,.07,.8,.13,1.7-.03,2.38Zm14.96,10.61c-.53-1.78-1.5-3.53-2.9-5.21-.15-.18-.32-.34-.5-.49,.3-1.35,.65-2.71,1.16-4.02,.13-.33,.12-.7-.04-1.01-.15-.3-.42-.53-.75-.62-.64-.19-1.35,.17-1.59,.81-.51,1.32-.87,2.64-1.17,3.95-.87-.03-1.75,.2-2.5,.76-2.38,1.76-4.21,3.75-5.43,5.94-1.47,2.63-2.08,5.51-1.78,8.32,.18,1.64,.67,3.3,1.46,4.92,.41,.84,1.09,1.51,1.92,1.88,.48,.22,.99,.35,1.51,.37h0c.06,0,.12,0,.18,0,.47,0,.93-.1,1.37-.27,3.35-1.12,6.1-3.13,7.74-5.68,.92-1.43,1.51-2.99,1.74-4.62,.23-1.6,.08-3.29-.43-5.02Zm-4.63,4.3c-.13,.9-.46,1.76-.98,2.57-.89,1.38-2.37,2.53-4.23,3.3-.29-.77-.48-1.54-.56-2.29-.19-1.75,.22-3.59,1.17-5.29,.46-.82,1.07-1.62,1.8-2.38,.4-.42,.83-.83,1.3-1.23,.48,.69,.83,1.37,1.08,2.05,.05,.15,.11,.29,.15,.44,.3,1.02,.39,1.98,.27,2.85Zm13.3,13.74c-.35-1.87-.97-3.56-1.84-5.04-.18-.31-.71-1.2-1.81-1.69,.36-1.89,.65-3.78,.8-5.66,.06-.72-.44-1.44-1.15-1.67-.4-.13-.83-.08-1.15,.15-.32,.21-.52,.56-.55,.96-.16,1.99-.5,4.05-.91,6.1-.13,.05-.27,.09-.4,.16-2.8,1.45-5.08,3.47-6.59,5.83-1.73,2.72-2.46,5.75-2.1,8.76,.21,1.75,.81,3.54,1.73,5.14l.02,.04c.18,.32,.4,.62,.65,.88,.38,.39,.83,.7,1.36,.91,.4,.15,.82,.24,1.25,.26,.06,0,.13,0,.19,0,.13,0,.25,0,.38-.02,1.98-.12,3.8-.71,5.4-1.74,1.43-.92,2.62-2.24,3.52-3.92,1.41-2.62,1.85-6.07,1.21-9.45Zm-5.71,7.03c-.49,.91-1.09,1.6-1.78,2.04-.7,.45-1.48,.74-2.34,.87-.42-.86-.69-1.77-.79-2.65-.22-1.83,.25-3.7,1.34-5.41,.3-.47,.67-.92,1.06-1.35,.69-.75,1.51-1.45,2.45-2.05,.25,.56,.44,1.19,.59,1.84,.05,.21,.11,.41,.15,.63,.42,2.22,.16,4.5-.69,6.08ZM26.62,15.57c-.17-.98-.57-1.96-1.21-3.01-1.13-1.82-2.58-3.16-3.73-4.12-.61-.51-1.23-.98-1.86-1.47-.61-.47-1.25-.95-1.82-1.44-.67-.57-1.51-.87-2.38-.88-.38-1.31-.82-2.62-1.45-3.89-.32-.66-1.12-.94-1.77-.63-.32,.15-.56,.42-.67,.75-.12,.34-.1,.71,.06,1.03,.57,1.16,.97,2.37,1.32,3.63-.57,.46-1.02,1.06-1.27,1.74-1.12,3.14-1.79,5.75-2.12,8.24-.63,4.78,.4,8.26,3.07,10.35,1.39,1.09,3.14,1.64,5.22,1.64,.55,0,1.14-.04,1.74-.12,.54-.04,1.04-.18,1.49-.41,.19-.1,.37-.21,.54-.33,1.31-.88,2.41-2.09,3.26-3.59,.89-1.56,1.44-3.19,1.63-4.84,.11-.91,.09-1.8-.06-2.64Zm-5.02,2.03c-.12,.97-.45,1.96-1.01,2.93-.43,.77-.96,1.37-1.56,1.79-1.39,.18-2.46,.01-3.09-.48-.43-.33-1.72-1.35-1.15-5.66,.12-.92,.31-1.87,.55-2.88,.21-.86,.46-1.76,.77-2.72,.21,.16,.42,.32,.63,.48,.27,.21,.54,.42,.82,.63,.28,.22,.56,.44,.83,.67,.85,.71,1.92,1.69,2.66,2.89,.29,.48,.47,.88,.53,1.21,.06,.35,.07,.73,.02,1.15Zm54.15,80.85c-1.83,4.9-4.23,9.42-3.95,14.62,.31,5.12,2.18,9.99,3.98,14.82,.41,1.1-.62,1.89-1.49,1.71-.6,.14-1.22-.16-1.47-.75-2.82-6.1-5.7-14.52-11.91-17.73-3.08-1.52-6.83-1.82-10.55-2.07-1.69-.12-4.12-.14-5.77-.36-9.9-1.62-17.25-9.38-23.36-16.7-4.8-5.96-9.05-12.28-12.99-18.77-.14-.23-.06-.52,.16-.66,.21-.13,.49-.07,.64,.13,4.42,6.15,8.82,12.31,13.8,17.93,4.88,5.46,10.31,10.95,17.01,13.96,2.48,1.12,5.12,1.62,7.8,1.63,2.82,.12,5.84,.24,8.66,.71,2.85,.38,5.27,1.31,7.35,2.7-13.17-26.72-27.07-54.18-41.07-80.13-.05-.1-.02-.22,.08-.27,.1-.05,.22-.02,.27,.07,12.8,21.83,25.69,43.63,37.26,66.15,3.08,6,6.08,12.04,8.94,18.16-.13-2.01-.02-4.02,.47-6.03,.7-3.12,2.46-7.14,3.61-10.12,.32-.82,1.12-2.87,1.41-3.67,2.93-8.55,1.75-17.94,.03-26.67-1.08-5.1-2.65-10.12-4.76-14.88-.72-1.58-1.51-3.13-2.38-4.64-.13-.23-.06-.52,.17-.65,.21-.12,.49-.06,.63,.13,1.05,1.45,1.95,2.99,2.78,4.57,6.1,12.15,10.48,29.8,6.05,43.06-.27,.81-1.09,2.91-1.4,3.74Z"/>
</svg>