<?xml version="1.0" encoding="UTF-8"?>
<svg id="Layer_1" data-name="Layer 1" xmlns="http://www.w3.org/2000/svg" viewBox="0 0 70.87 64.09">
  <defs>
    <style>
      .cls-1 {
        fill: #fff;
      }
    </style>
  </defs>
  <ellipse class="cls-1" cx="22.67" cy="41.43" rx="11.84" ry="11.93"/>
  <path class="cls-1" d="M68.66,27.27h-.18v-3.24c0-2.9-2.35-5.27-5.23-5.27H16.62L39.33,2.18c.53-.39,.65-1.14,.27-1.68h0c-.39-.54-1.14-.66-1.67-.27L12.56,18.76H5.23c-2.88,0-5.23,2.37-5.23,5.27V58.82c0,2.9,2.35,5.27,5.23,5.27H63.25c2.88,0,5.23-2.37,5.23-5.27v-17.39h.18c1.21,0,2.2-1,2.2-2.22v-9.71c0-1.22-.99-2.22-2.2-2.22ZM22.77,57.25c-8.82,0-15.97-7.21-15.97-16.1s7.15-16.1,15.97-16.1,15.97,7.21,15.97,16.1-7.15,16.1-15.97,16.1Zm40.39-2.96h-21.85v-4.44h21.85v4.44Zm0-7.4h-21.85v-4.44h21.85v4.44Zm0-7.4h-21.85v-4.44h21.85v4.44Zm0-7.4h-21.85v-4.44h21.85v4.44Z"/>
</svg>