<?xml version="1.0" encoding="UTF-8"?>
<svg id="Layer_1" data-name="Layer 1" xmlns="http://www.w3.org/2000/svg" viewBox="0 0 63.15 63.61">
  <defs>
    <style>
      .cls-1 {
        fill: #fff;
      }
    </style>
  </defs>
  <g>
    <polygon class="cls-1" points="21.92 4.95 31.57 4.95 41.22 4.95 50.87 4.95 59.64 4.95 59.64 0 45.99 0 17.15 0 3.5 0 3.5 4.95 12.27 4.95 21.92 4.95"/>
    <path class="cls-1" d="M47.78,30.37c2.51,0,4.56-2.04,4.56-4.56v-4.23l-2.2-14.93h-8.01l1.09,14.81s0,.02,0,.03c0,.01,0,.02,0,.03v4.29c0,2.51,2.04,4.56,4.56,4.56Z"/>
    <path class="cls-1" d="M32.42,6.65V25.81c0,2.51,2.04,4.56,4.56,4.56s4.56-2.04,4.56-4.56v-4.26l-1.1-14.9h-8.02Z"/>
    <path class="cls-1" d="M54.03,21.4s0,.01,0,.02c0,.01,0,.03,0,.05,0,.01,0,.03,0,.04,0,0,0,.01,0,.02v4.29c0,2.51,2.04,4.56,4.56,4.56s4.56-2.04,4.56-4.56v-4.2l-3.3-14.96h-7.99l2.17,14.75Z"/>
    <path class="cls-1" d="M4.56,30.37c2.51,0,4.56-2.04,4.56-4.56v-4.29s0-.01,0-.02c0-.01,0-.03,0-.04,0-.02,0-.03,0-.05,0,0,0-.01,0-.02l2.17-14.75H3.3L0,21.61v4.2c0,2.51,2.04,4.56,4.56,4.56Z"/>
    <path class="cls-1" d="M10.81,25.81c0,2.51,2.04,4.56,4.56,4.56s4.56-2.04,4.56-4.56v-4.29s0-.02,0-.03c0-.01,0-.02,0-.03l1.09-14.81H13.01l-2.2,14.93v4.23Z"/>
    <path class="cls-1" d="M21.61,25.81c0,2.51,2.04,4.56,4.56,4.56s4.56-2.04,4.56-4.56V6.65h-8.02l-1.1,14.9v4.26Z"/>
  </g>
  <path class="cls-1" d="M59.64,31.97c-.34,.06-.69,.09-1.05,.09-2.3,0-4.32-1.25-5.4-3.11,0,0,0,0,0,0-1.09,1.86-3.1,3.11-5.4,3.11s-4.32-1.25-5.4-3.11c0,0,0,0,0,0-1.09,1.86-3.1,3.11-5.4,3.11s-4.32-1.25-5.4-3.11c0,0,0,0,0,0-1.08,1.86-3.1,3.11-5.4,3.11s-4.32-1.25-5.4-3.11c0,0,0,0,0,0-1.08,1.86-3.1,3.11-5.4,3.11s-4.32-1.25-5.4-3.11c0,0,0,0,0,0-1.08,1.86-3.1,3.11-5.4,3.11-.36,0-.71-.03-1.05-.09,0,0,0,0,0,0v31.63s0,0,0,0H24.43v-17.62c0-1.5,1.22-2.72,2.72-2.72h8.84c1.5,0,2.72,1.22,2.72,2.72v17.61h20.93V31.98s0,0,0,0Z"/>
</svg>